<?xml version="1.0" encoding="UTF-8" standalone="no"?>
<!DOCTYPE svg PUBLIC "-//W3C//DTD SVG 1.1//EN" "http://www.w3.org/Graphics/SVG/1.1/DTD/svg11.dtd">
<!-- Created with Vectornator (http://vectornator.io/) -->
<svg height="100%" stroke-miterlimit="10" style="fill-rule:nonzero;clip-rule:evenodd;stroke-linecap:round;stroke-linejoin:round;" version="1.1" viewBox="0 0 512 512" width="100%" xml:space="preserve" xmlns="http://www.w3.org/2000/svg" xmlns:vectornator="http://vectornator.io" xmlns:xlink="http://www.w3.org/1999/xlink">
<defs/>
<clipPath id="ArtboardFrame">
<rect height="512" width="512" x="0" y="0"/>
</clipPath>
<g clip-path="url(#ArtboardFrame)" id="Layer-1" vectornator:layerName="Layer 1">
<path d="M470.447 268.364L470.447 178.175C470.447 120.211 423.455 73.1974 365.501 73.1974C307.532 73.1974 260.555 120.193 260.555 178.175L260.555 268.364L258.16 268.364C236.572 268.364 219.135 285.85 219.135 307.422L219.135 473.247C219.135 494.859 236.609 512.305 258.16 512.305L472.851 512.305C494.438 512.305 511.876 494.819 511.876 473.247L511.876 307.422C511.876 285.807 494.402 268.364 472.851 268.364L470.447 268.364ZM431.416 268.364L431.416 178.175C431.416 141.765 401.896 112.232 365.499 112.232C329.089 112.232 299.581 141.75 299.581 178.175L299.581 268.364L431.416 268.364ZM378.694 387.557C385.433 383.217 389.892 375.646 389.892 367.035C389.892 353.564 378.972 342.642 365.499 342.642C352.025 342.642 341.106 353.565 341.106 367.035C341.106 375.648 345.569 383.22 352.307 387.56L341.532 428.405C339.856 433.719 343.256 438.028 349.272 438.028L381.733 438.028C387.705 438.028 391.142 433.701 389.473 428.405L378.694 387.557Z" fill="#ff0000" fill-rule="evenodd" opacity="1" stroke="none"/>
<path d="M260.832 269.127L258.332 269.127C236.74 269.127 219.298 286.517 219.298 307.97L219.298 472.877C219.298 494.369 236.776 511.72 258.332 511.72L473.068 511.72C494.66 511.72 512.101 494.33 512.101 472.877L512.101 307.97C512.101 286.474 494.624 269.127 473.068 269.127L299.875 269.127L299.875 179.437C299.875 121.794 252.873 75.0402 194.907 75.0402C136.925 75.0402 89.9387 121.775 89.9387 179.437L89.9387 316.756C89.9387 327.472 98.6795 336.162 109.457 336.162C120.238 336.162 128.979 327.472 128.979 316.756L128.979 179.437C128.979 143.214 158.493 113.859 194.91 113.859C231.315 113.859 260.841 143.229 260.841 179.437L260.832 269.127ZM378.897 387.661C385.637 383.345 390.097 375.816 390.097 367.253C390.097 353.856 379.176 342.995 365.699 342.995C352.223 342.995 341.301 353.857 341.301 367.253C341.301 375.818 345.765 383.348 352.505 387.665L341.727 428.283C340.051 433.568 343.452 437.853 349.469 437.853L381.936 437.853C387.91 437.853 391.348 433.549 389.678 428.283L378.897 387.661Z" fill="#ffffff" fill-rule="evenodd" opacity="0" stroke="none"/>
</g>
</svg>
